<?xml version="1.0" encoding="UTF-8"?>
<svg id="Layer_1" data-name="Layer 1" xmlns="http://www.w3.org/2000/svg" xmlns:xlink="http://www.w3.org/1999/xlink" viewBox="0 0 537.6 302.4">
  <defs>
    <style>
      .cls-1 {
        fill: #a9e104;
      }

      .cls-2 {
        fill: url(#linear-gradient-4);
      }

      .cls-3 {
        fill: url(#linear-gradient-3);
      }

      .cls-4 {
        fill: url(#linear-gradient-2);
      }

      .cls-5 {
        fill: #7ba303;
      }

      .cls-6 {
        fill: url(#linear-gradient);
      }

      .cls-7 {
        fill: #0d0d0d;
      }

      .cls-8 {
        fill: #97c904;
      }

      .cls-9 {
        fill: #87b306;
      }

      .cls-10 {
        fill: #93c305;
      }

      .cls-11 {
        fill: #82ab05;
      }

      .cls-12 {
        fill: #afe904;
      }

      .cls-13 {
        fill: #fefefe;
      }

      .cls-14 {
        fill: #9dd104;
      }

      .cls-15 {
        fill: #0a0a0a;
      }

      .cls-16 {
        fill: #8bb806;
      }

      .cls-17 {
        fill: #090909;
      }

      .cls-18 {
        fill: #a2d804;
      }

      .cls-19 {
        fill: #8fbe06;
      }
    </style>
    <linearGradient id="linear-gradient" x1="190.75" y1="1759.06" x2="327.91" y2="2050.38" gradientTransform="translate(165.77 -165.95) scale(.24)" gradientUnits="userSpaceOnUse">
      <stop offset="0" stop-color="#7ba303"/>
      <stop offset="1" stop-color="#9dd104"/>
    </linearGradient>
    <linearGradient id="linear-gradient-2" x1="1405.11" y1="1529.8" x2="1590.67" y2="1929.86" gradientTransform="translate(165.77 -165.95) scale(.24)" gradientUnits="userSpaceOnUse">
      <stop offset="0" stop-color="#b3ee04"/>
      <stop offset="1" stop-color="#89b506"/>
    </linearGradient>
    <linearGradient id="linear-gradient-3" x1="-196.95" y1="547.6" x2="9.37" y2="987.64" gradientTransform="translate(165.77 -165.95) scale(.24)" gradientUnits="userSpaceOnUse">
      <stop offset="0" stop-color="#9cd004"/>
      <stop offset="1" stop-color="#7ba303"/>
    </linearGradient>
    <linearGradient id="linear-gradient-4" x1="957.47" y1="1247.71" x2="628.36" y2="1291.41" gradientTransform="translate(165.77 -165.95) scale(.24)" gradientUnits="userSpaceOnUse">
      <stop offset="0" stop-color="#b6f104"/>
      <stop offset="1" stop-color="#7ba303"/>
    </linearGradient>
  </defs>
  <path class="cls-7" d="M42.78.3c.65.16.68.33.11.67-.13,1.29-.08,2.63.18,4.03-.19,14.8,4.33,29.62,11.61,42.56-.61.14-.58.23.1.26,6.24,11.6,15.81,22.38,26.79,30.43s24.63,14.35,37.77,16.84c5.09.96,12.51,1.67,17.74,1.5,21.12-.7,37.86-6.53,55.36-18.88,22.34-15.76,37.88-45.57,37.82-72.92.25-1.32.29-2.6.11-3.82-.62-.22-.53-.48.1-.66,102.25-.18,204.59-.24,307.01-.17.08,61.56.03,123.09-.15,184.58-.16.2-.32.39-.5.56s-.36.31-.56.42c-6.84,3.47-12.38,6.37-18.35,11.37-11.28,9.44-19.67,22.17-22.55,36.7l-.72,1.24c-4.54,8.96-7.68,18.11-9.24,28.13-2.01,12.89-.1,25.78,3.78,38.4l-.04.88h-193.81l-.76-1.18c-6.87-28.36-32.85-48.5-61.99-48.5-29.19,0-55.1,20.12-62.02,48.5l-.77,1.18H0v-76.02l.17-.53c1.01-.49,2.01-1,3-1.54l.45.36.2-.56c.98-.47,1.93-1.01,2.85-1.63l.54.27.18-.62,2.54-1.73.64.17.2-.68c1.11-.81,2.17-1.7,3.17-2.66l.72.02c.29-.88.88-1.66,1.78-2.35l2.12-2.48.84-.28.35-1.22c16.8-21.66,8.47-54.43-16.33-65.7l-.79-.87c-.58.51-2.38-.29-2.63-.96V.24C13.91.06,28.81,0,42.78.3Z"/>
  <path class="cls-6" d="M295.34,302.4h-125.54c6.48-29.23,32.84-50.15,62.79-50.16s56.34,20.94,62.76,50.16Z"/>
  <path class="cls-4" d="M537.33,184.7c.24,2.37.21,5.18.03,7.62-.08,4.24-.16,8.48-.24,12.71.08,5.4.16,10.84.24,16.31.21,7.81.21,16.32,0,24.22-.08,4.8-.16,9.6-.24,14.39.08,5.48.16,11,.24,16.55.21,8.37.21,17.45,0,25.9h-25.07c-.26-.1-.51-.22-.74-.36s-.45-.28-.62-.47c-9.37-10.74-16.38-25.09-18-39.33-.03-.25.02-.51.07-.78s.14-.53.23-.79c-.11-.38-.17-.78-.19-1.2-.64-.3-.67-.84-.05-1.2-.11-.62-.17-1.26-.18-1.92-.19-.02-.47-.07-.48-.2-.07-.53-.12-3.96.1-4.19.08-.08.19-.13.32-.16.09-1.21.17-2.41.24-3.6-.25-.51-.18-1.33,0-1.92-.68-.17-.6-1.06.05-1.2l.19-1.2-.46-.22c.17-3.04.8-5.93,1.88-8.67,3.96-22.75,21.23-41.29,42.68-50.28Z"/>
  <path class="cls-15" d="M493.23,243.89l-.19,1.2c.04.4-.05.8-.05,1.2-.11.65-.19,1.29-.25,1.92.22,1.04.2,2.46,0,3.6l.06,4.56c0,.66.07,1.3.18,1.92.06.39.07.8.05,1.2l.19,1.2c1.64,15.65,8.63,30.01,19.07,41.73h-23.15c-2.49-7.27-4.21-14.72-4.78-22.52l-.18-2.44c-.15-2.06-.13-4.12,0-6.18l.16-2.46c.74-11.56,4.1-22.67,9.51-32.87.25-.48.38-.81.8-.94l-.48,2.76-.82,4.5-.12,1.63Z"/>
  <path class="cls-11" d="M2.63,144.37l.47.52c5.39,22,10.9,44.1,16.54,66.29l-.25.98c-1.5,1.84-2.9,3.6-4.74,5.11l-.55-.06c-4.87-18.65-9.57-37.33-14.11-56.05v-17.75c.93.11,1.78.61,2.63.96Z"/>
  <path class="cls-9" d="M14.65,217.26c-1.38,1.12-2.51,2.41-4.09,3.32l-.51-.05c-3.44-13.65-6.79-27.28-10.06-40.91v-18.47c.37.22.6.66.75,1.26l13.47,53.79c.13.51.33.74.44,1.06Z"/>
  <path class="cls-13" d="M0,.24v-.24h537.6v302.4h-.24v-25.9c-.21-5.43-.21-11.15,0-16.55-.21-4.63-.2-9.68,0-14.39v-24.22c-.21-5.35-.2-10.99,0-16.31-.21-4.07-.2-8.56,0-12.71l-.03-7.62.06-184.46-306.92.04-.23.48c-62.38,0-124.77,0-187.16,0l-.3-.48L0,.24Z"/>
  <path class="cls-16" d="M10.56,220.58c-1.16.67-2.1,1.61-3.36,2.18l-.51-.05c-2.3-9.11-4.53-18.2-6.7-27.27v-15.83c.33.23.57.7.71,1.27l9.85,39.7Z"/>
  <path class="cls-19" d="M7.2,222.76c-1.23.55-2.19,1.56-3.58,1.91l-.52-.1c-1.09-4.28-2.12-8.55-3.1-12.82v-16.31c.37.07.52.41.64.88l6.56,26.43Z"/>
  <path class="cls-10" d="M3.62,224.67c-1.19.3-2.34,1.47-3.62,1.71v-14.63c.46.14.6.75.73,1.29l2.89,11.63Z"/>
  <path class="cls-3" d="M230.47.29c-.06.22-.05.44-.1.66.12.56.2,1.14.09,1.71-2.5,12.91-9.99,27.23-18.09,37.52-20.89,26.55-53.95,40.23-87.55,36.1-33.35-4.1-63.23-26.46-75.96-55.74-2.4-5.51-5.64-13.29-6.16-19.17-.02-.17,0-.3.18-.4-.05-.22-.04-.45-.11-.67h187.69Z"/>
  <path class="cls-2" d="M391.48,158.07c.02.22.02.44,0,.65-.27,2.1-5.63,7.84-7.44,9.51-13.55,12.54-33.73,14.33-49.31,4.95-2.11-1.27-4.31-2.86-6-4.66-.64-.3-1.1-.66-1.6-1.14-1.71-1.63-5.37-6.28-6.29-8.39-.13-.3-.2-.66-.04-.95-9.38-17.22-5.53-38.43,9.61-50.96,14.97-12.38,37.05-12.39,51.96.48,1.72,1.48,3.09,2.78,4.68,4.67,10.59,12.62,12.82,31.08,4.44,45.84Z"/>
  <path class="cls-17" d="M42.88.96l1.43,5.71c.81,3.24,3.52,10.73,4.98,13.65l3.12,6.25,2.07,3.64c.3.53.67,1.11,1.01,1.63l2.58,3.88c.33.5.74,1.04,1.09,1.52l1.63,2.17,2.84,3.49c.66.81,1.42,1.56,2.06,2.27,22.68,24.91,56.49,35.96,89.35,29.57,37.64-7.33,67.2-36.61,75.31-73.79.96-.28.38,3.55.37,3.85l-.15,4.49c-.44,13.04-4.63,25.54-10.8,37.05-2.43,4.89-7.17,12.17-10.66,16.21l-1.66,1.91-1.55,1.8c-1.79,2.07-3.68,3.97-5.75,5.75l-1.69,1.45c-.7.6-1.31,1.16-2.06,1.77-9.67,7.85-20.59,13.76-32.51,17.55-6.9,2.19-13.78,3.41-20.94,4.02-1.52.13-3.01-.06-4.48.15-1.38.2-2.54.04-3.91-.01l-4.51-.16c-13.04-.47-25.56-4.64-37.05-10.87l-1.95-.98c-12.54-7.04-23.29-16.76-31.55-28.56-.96-1.37-1.77-2.5-2.61-3.88-.17-.28-3.03-5.08-2.63-4.73-.65-.56-.6-1.07-.96-1.75-6.07-11.43-10.22-23.81-10.61-36.73l-.13-4.26c-.01-.35-.64-4.43.3-4.06Z"/>
  <path class="cls-17" d="M391.48,158.07c.64-.24.38,5.52.35,5.85-.8,7.58-4.19,14.23-9.05,19.94-4.33,5.09-11.2,9.12-17.62,11.09-3.79,1.16-8.08,1.5-12.04,1.14-7.85-.71-14.88-4.27-20.74-9.39-5.55-4.85-11.82-15.46-11.91-22.81l-.06-4.88c0-.43.13-.77.38-.96l1.59,2.48c1.21,1.84,2.51,3.48,3.95,5.12.73.83,1.17,1.79,2.29,2.27.65.28,1.07,1.06,1.6,1.49l1.08.87,3.38,2.33c.81.56,1.86.85,2.58,1.48.63.54,1.06.52,1.75.83,19.32,8.85,42.02,1.56,52.46-16.83Z"/>
  <path class="cls-5" d="M19.4,212.16l-15.32-60.97-1.45-6.21c-.07-.23-.04-.44,0-.61,11.94,5,21.09,15.89,24.53,27.68,4.17,14.29,1.21,29.11-7.76,40.11Z"/>
  <path class="cls-8" d="M537.36,276.5c-.09.03-.24-.08-.24-.26v-16.28c.07-.21.15-.21.24,0v16.55Z"/>
  <path class="cls-1" d="M537.36,221.34c-.09.03-.24-.08-.24-.26v-16.04c.07-.21.15-.21.24,0v16.31Z"/>
  <path class="cls-14" d="M537.36,259.95h-.24v-14.13c0-.18.15-.29.24-.26v14.39Z"/>
  <path class="cls-12" d="M537.36,205.04h-.24v-12.45c0-.17.15-.29.24-.26v12.71Z"/>
  <path class="cls-18" d="M492.74,251.8v-3.6c.07-.21.15-.21.24,0v3.13c0,.25-.05.48-.24.47Z"/>
  <path class="cls-7" d="M492.98,248.2h-.24c0-.64-.22-1.46.25-1.92v1.92Z"/>
  <path class="cls-7" d="M492.99,258.28c-.52-.46-.18-1.29-.18-1.92.39.56.09,1.28.18,1.92Z"/>
  <path class="cls-7" d="M493.04,245.09c-.04-.39-.25-.99.19-1.2-.03.38.2.93-.19,1.2Z"/>
  <path class="cls-7" d="M493.23,260.67c-.45-.21-.21-.81-.19-1.2.34.28.15.81.19,1.2Z"/>
</svg>