<?xml version="1.0" encoding="UTF-8"?>
<svg id="Layer_1" data-name="Layer 1" xmlns="http://www.w3.org/2000/svg" xmlns:xlink="http://www.w3.org/1999/xlink" viewBox="0 0 302.4 656.64">
  <defs>
    <style>
      .cls-1 {
        fill: #111;
      }

      .cls-2 {
        fill: url(#linear-gradient-5);
      }

      .cls-3 {
        fill: url(#linear-gradient-4);
      }

      .cls-4 {
        fill: url(#linear-gradient-3);
      }

      .cls-5 {
        fill: url(#linear-gradient-2);
      }

      .cls-6 {
        fill: #7ba303;
      }

      .cls-7 {
        fill: url(#linear-gradient);
      }

      .cls-8 {
        fill: #97c904;
      }

      .cls-9 {
        fill: #82ac05;
      }

      .cls-10 {
        fill: #141414;
      }

      .cls-11 {
        fill: #87b306;
      }

      .cls-12 {
        fill: #0b0b0b;
      }

      .cls-13 {
        fill: #121212;
      }

      .cls-14 {
        fill: #93c305;
      }

      .cls-15 {
        fill: #afe904;
      }

      .cls-16 {
        fill: #8ab706;
      }

      .cls-17 {
        fill: #8ebd06;
      }

      .cls-18 {
        fill: #fefefe;
      }

      .cls-19 {
        fill: #9fd304;
      }

      .cls-20 {
        fill: #0f0f0f;
      }
    </style>
    <linearGradient id="linear-gradient" x1="107.08" y1="866.28" x2="418.17" y2="1582.65" gradientTransform="translate(193.77 -208.48) scale(.24)" gradientUnits="userSpaceOnUse">
      <stop offset="0" stop-color="#afe904"/>
      <stop offset="1" stop-color="#769d03"/>
    </linearGradient>
    <linearGradient id="linear-gradient-2" x1="462.12" y1="3520.47" x2="306.48" y2="3541.08" gradientTransform="translate(193.77 -208.48) scale(.24)" gradientUnits="userSpaceOnUse">
      <stop offset="0" stop-color="#97c904"/>
      <stop offset="1" stop-color="#7ba303"/>
    </linearGradient>
    <linearGradient id="linear-gradient-3" x1="-169.14" y1="2221.84" x2="51.9" y2="2704.65" gradientTransform="translate(193.77 -208.48) scale(.24)" gradientUnits="userSpaceOnUse">
      <stop offset="0" stop-color="#7ba303"/>
      <stop offset="1" stop-color="#b3ee04"/>
    </linearGradient>
    <linearGradient id="linear-gradient-4" x1="-706.27" y1="3242.91" x2="-503.24" y2="3678.96" gradientTransform="translate(193.77 -208.48) scale(.24)" gradientUnits="userSpaceOnUse">
      <stop offset="0" stop-color="#b3ee04"/>
      <stop offset="1" stop-color="#81aa05"/>
    </linearGradient>
    <linearGradient id="linear-gradient-5" x1="-580.03" y1="1837.83" x2="-841.57" y2="1900.76" gradientTransform="translate(193.77 -208.48) scale(.24)" gradientUnits="userSpaceOnUse">
      <stop offset="0" stop-color="#7ba303"/>
      <stop offset="1" stop-color="#a6dc04"/>
    </linearGradient>
  </defs>
  <path class="cls-20" d="M302.4,485.37v131.05l-.87.64c-16.96,3.13-32.01,17.41-32.29,35.26l-.47.96c-.2,1.1-.14,2.1.16,3l-.33.12c-46.74.18-95.74.23-142.52-.05-.47,0-.62-.15-.47-.58,8.85-20.58,7.92-45.19-3.1-64.84-5.5-9.81-11.9-17.41-20.81-24.09-10.06-7.54-23.08-13.34-35.57-14.61-13.63-1.39-26.63.15-39.13,5.59-9.64,4.8-19.06,10.98-26.1,19.24l-.61-.08c-.22-59.74-.17-122.23-.1-182.14,0-.06.08-.11.18-.17.18-1.44,2.09-.22,2.63.67-.03.97,1.55,2.66,1.17.75.23-.51.68-.52,1.18-.48-.13-1.6,1.16-1.92,1.73-.55.32-.13.63-.14.94-.03.55.87.72,1.71.53,2.5.55-.98,1.15-.97,2.17-.79.71-.55,1.31-.33,1.8.68l2.1-.33c.51.39,1.02.45,1.55.16,1.07,1.14,2.21,2.07,3.42,2.8.29-1.92,2.2-2.58,3.14-.67.44.13.8.43,1.08.92,1.4,0,2.01.55,1.84,1.64l.67-.04c1.27-1.73,2.55-1.21,1.95,1.02l.62-.43c1.25.07,2.78.28,3.62,1.37,1.42-.17,1.75,1.05,1.5,2.25.86-.95,1.81-1.59,2.85-1.94l.66.22c1.25-.68,2.41-.12,3.47,1.67,1.25.17,1.79.68,1.63,1.51.63.51.99.7,1.08.59-2.19-1.88,1.41-3.01,1.3-.59.97.04,1.34.39,1.81,1.16.59.31.95.75,1.07,1.33-.26-1.15-.15-1.61.34-1.37-.27-.63.86-.89,1.38-.92,1.09-.05,2.19.19,2.03,1.48.79.05,1.32.52,1.52,1.28,1.37-1.61,2.79-.3,1.67,1.43.55.15.95-.14,1.21-.88,1.28.09,2.52-.31,3.71-1.21l.54.03c.77.92,1.54,1.87,2.3,2.85,1.29-.63,2.16-.64,3.12.49.79.41,1.69.42,2.72.05.37,0,.67.21.89.61,2.08-.88,2.31.65,1.83,2.31.68.44,1.28.26,1.8-.56,1.16-.26,2.22.48,1.68,1.7.45-.25.82-.7,1.11-1.36.93-.3,1.54.19,1.83,1.49.31-1.76,1.06-1.7,1.73-.06,1.68.27,3.21,1.03,4.61,2.28,1.08-.87,1.89-1.02,2.97-.08.73-.65,1.37-.68,1.86.25.88-.43,1.4-.14,1.96.56,1.23-1.32,2.69-1.07,2.59.89.33.43.61.32.84-.33,1.42.35,2.83.74,4.24,1.16.17.44.3.89.39,1.35.63-.07,3-.16,3.47.21s.67.81.49,1.41c.47-1.9,1.31-2.64,3-1.09.88-.87,1.65.09,2.17.88.76.23,1.11.64,1.04,1.24-.72.71-.59,1.15.42,1.31,1.01-.91,1.88-1.29,2.61.19,1.22-.27,1.95.03,2.19.89.7.48.9.98.61,1.48-.7.45-.65,1.45-.03.24.78-.25,1.62-.4,2.53-.45l.5.58c1.14-.73,2.57-.9,3.63.02,1.33.33,2.64.45,3.93.34,1.2.58,2.35,1.24,3.45,1.96l.67-1.34c-8.69-10.24-17.14-21.73-20.72-34.79-.81-1.42-1.22-3.02-1.24-4.79-1.5-1.22.34-2.53,1.53-1.46.99.01,1.75.19,1.83,1.3l1.79.35c.03.43.23.49.69.43-.26,1.2,1.39,1.16.61.08,0-1.43,1.69-1.29,2.08-.09l.68,1.19c5.35,31.54,34.55,56.74,67.09,53l1.34.32c.44-.19.92-.25,1.44-.19.2-.15.4-.29.61-.41s.41-.21.63-.25c8.96-1.82,16.15-3.35,24.24-8.02,8.1-4.67,16.74-13.17,21.75-21.07s8.91-18.97,9.9-28.32c3.44-32.6-19.89-62.45-51.76-68.71-31.94-6.28-63.89,12.84-73.38,43.99l-.85,1.17c-.24.66-.54.53-.88-.02.15-13.84,4.7-27.6,12.09-39,1.26-1.26,1.58-1.39,3.19-.69.7-1.27,2.09-2.35,2.09-.14.85-.79,2.06-.81,1.79.59,1.12.82,1.78.69,1.97-.39,5.02-5.57,9.67-10.58,15.88-15.16,10.49-7.73,22.45-11.97,35.47-13.27.97-.1,6.52-.52,6.98.03.49.58,0,1.16-.55,1.49-2.83,1.33-5.59,2.79-8.28,4.38,17.7-1.31,35.03,4.15,48.62,15.4,1.03-.12,1.61.4,1.75,1.54.8.12,1.28.47,1.44,1.04l1.61.49c.91-.54,1.73-.23,2.47.95,1.43-.49,2.26-.13,2.49,1.08.37-.18.77-.27,1.19-.21,1.21.16,3.95,3.04,4.88,4.1.88,1.5,1.83,2.94,3.05,4.22.79,1.79,1.72,3.51,2.8,5.15,3.64,8.39,5.98,17.19,7.02,26.4.1,1.25.44,1.88,1.04,1.87,1.56-.96,3.7-1.77,2.45.94-1.3.35-1.05,1.59.01.17.43-1.34,1.77-2.42,2.95-1.25,1.09,1.08,1.88,6.08.94,7.39.26,3.64-.45,7.68-1.24,11.3-1.76,8.08-6.02,18.24-10.64,25.21-5.61,8.46-11.85,15.09-19.64,21.12.5.49,1.08.84,1.75,1.05.12.59.31.58.86.43,1.77-.93,2.63-.69,2.58.7,1.27-.72,1.81-.11,1.62,1.83,1.32-.04,2.55-.38,3.69-1.04.62-.05,1.24.2,1.87.76,1.86-.35,2.26.83.75,1.95-.9,1.4-1.75,2.64-3.34,3.26-.98,1.31-2.04,2.04-3.52,2.65-3.98,3.44-9.44,6.5-14.28,8.74-6.41,2.97-13.09,5.09-19.74,6.87-.53,1.4-.36,1.58.89,2.29.62-.78,1.44-.63,2.48.44l.67.28c1.03-.37,2.04-.57,3.03-.61.56.99.93,2.09,1.11,3.31l.6-.06c1.01-2.58,1.94-3.01,2.79-1.3,1.38-.74,2.78-.19,2.05,1.53-.08.19,1.18.82.76-.47l.26-.25c1.1-.04,2.15.47,3.16,1.53.91-.05,1.38.21,1.39.8-.84,1.23.85,1.8.95.44.43-.92.98-1.77,2.03-1.37.39.52,2.31,2.59,2.69,2.29.28-.41.74-.57,1.41-.48.93-.87,2.32.42,2.6,1.45.97-.38,1.63.21,2,1.07l.42-.26c.33-1.98,3.22-1.66,2.56.34,2.13-.46,2.45-.21,2.57,2.08.59.62,1.15.2,1.58-.39.63-2.44,3.33-.74,1.29.85.15.65.38.51.71-.43.63-.23,1.31-.08,2.05.44.5,1,1.32,2.29,1.82.6.73-.23,1.37.2,1.9,1.28.78.72,1.63,1.05,2.25.06,1.29-.1,3.38,2.04,2.75,3.46l.71-.58c1.04-1.8,1.86-1.97,2.48-.53-.01-.39.22-.67.71-.84,1.02-3.08,4.36.01,1.9,1.44l.55.66c.68-.06,1.22.4,1.6,1.39-.26-.93.19-1.5,1.12-1.45.76-1.53,2.64-.7,2.17.93.63-.05,1.14.13,1.54.53l2.32-.52c2.26.78,2.68,1.59,1.27,2.43l.58.42c.78-.82,2.02-1.52,2.9-.46.64-.37,1.19-.29,1.58.37,1.96-.08,3.42.52,4.4,1.82.77-2.11,3.05,0,2.03,1.09-.5.54-.55-.74.13.07.56-.22,1.07.1,1.47.44,1.36-1.85,4.09-1.38,2.32,1.01l.17.12c1.7-2.03,3.9-2.05,4.82.49.91-.51,1.72-.8,1.96.53Z"/>
  <path class="cls-13" d="M183.21,0c-.11.69-.25,1.39-.55,2.02-3.94,8.18-7.4,15.52-10,24.3-9.84,33.26-5.12,68.79,13.7,98.41l4.45-2.24.54.16.7.59c15.71,26.87,42.98,45.15,74.14,48.11,7.9.75,14.72.21,22.55-.45.63-.05,1.26.08,1.87.22,1.71.11,3.74.02,6.07-.26l5.3-.44.43.39v17.14l-.42.41c-27.78,13.96-55.46,28.13-83.05,42.5-1.64,1.15-3.38,2.14-5.22,2.95-.78.13-1.37.6-1.78,1.41-1.21.01-.99.17.65.46.33.42.77.41,1.33-.03.7.25,1.35.78,1.95,1.59.68-1.16,1.85-1.45,2.21.04.78-.15,1.42.22,1.92,1.1.84-1.12,1.73-.5,2.02.67.83-.87,2.08-.93,2,.49.72-1.21,1.67-.36,2.38.37.83-.07,1.56.33,2.18,1.2,1.67-.21,2.78.17,3.35,1.14,1.1-1.57,3.57-.06,4.61,1.02.59-.26,1.09-.25,1.51.02.31.71,1.77,1.45,1.77.43.82-1.28,1.66-.2,1.94.89,2.17-.36,3.09-.22,4.52,1.52.64-1.13,1.45-.83,1.99.2.94,0,1.8.38,2.6,1.14l.28-.05c.32-2.75,1.69-.43,2.07,1.03,1.28-.61,1.86-.38,2.67.73.86-.58,1.59-.19,2.19,1.15.77-1.08,1.87-.96,3.29.37.21.11.41.17.64.24.51.15,2.69.07,3.18-.22.68.27,1.12.91,1.31,1.93,2.17-1.25,3.49-1,4.17,1.58l2.08-1.11c1.01.23.85.96.22,1.58l1.44.48c2.01-.59,2.81-.26,2.4.99l-36.86,19.14c-.97.74-2.02,1.27-3.14,1.59-.66.84-1.35,1.53-2.43,1.8l1.49,1.32c.86-1.13,1.21-.86,1.52.39.28-.31.61-.47,1.03-.53,1.17-.16,3.45.29,2.57,1.8.91-.62,1.42-.51,2.01.46.91-1.16,1.96-.98,3.15.55.66.39,1.4.23,2.23-.47,1.06-.21,2.26.47,2.02,1.66.95-.44,1.42-.12,2.05.57.22-1.69,1.68-1.26,1.57.27,1.21-.28,2.14-.04,2.8.72.87-.22,1.38.25,1.8.95.93.24,1.78.7,2.54,1.37,1.18-.09,1.79.18,2.71.78,1.17-1.08,1.89-1.1,2.17-.05.56.05,1.1.2,1.62.46,1.01-1.32,2.51-.42,2.92.99,1.04-.03,1.71.35,2.01,1.16,1.15-.17,2.05-.22,3.02.51.75-.98,1.39-1.17,1.93-.57.23,1.11.67,1.52,1.31,1.24,1.57-1.87,3.28-.37,4.34,1.16,1.08-.97,2.05-.42,2,1.01.85.43,1.6.51,2.26.24,1.81.42,3.59.99,5.34,1.68l.71.76c1.08-.94,2.28-.53,3.11.56.79-.36,1.61-.16,2.48.61,1.32.25,2.48.49,3.31,1.64v92.3c-.69,1.28-1.66.07-1.61-1.11-.56-.22-.89-.61-.97-1.16-1.53.27-2.36-.08-2.51-1.04-.72,1.47-3.02,2.57-3.31.21l-1.59-.72c-.18,1.06-.95,1.13-1.52.26-.54.07-1-.05-1.37-.35-1.32.4-1.62-.81-.65-1.58l.38-1.5c-.31,1.54-2.39,2.25-2.92.57l-.23.11c-.63,4.03-3.87.3-1.44-2.13-.33-.88-.28-1.89.15-3.03l.85-12.99c-.04-5.05-.57-10.08-1.58-15.07.07-.06-.91-5.04-1.53-4.13.33,1.6-.77,2.22-1.35.55l-.64-.6c-.42.61-1.11,1.13-1.78.55-.64-.95-1.47-1.43-2.51-1.45-.86-.8-1.21-.89-1.05-.25-.65.73-1.37.46-1.79-.35-1.94,1.9-3.36-1.76-.68-1.5.09-.41-.05-.88-.41-1.41.15-1-.05-1.33-.61-1.01-.85.53-1.5.54-1.95.03-.95-2.62-2.05-5.16-3.29-7.61-.17-1.01-.58-1.89-1.22-2.66-10.44-21.57-30.23-37-53.42-42.66-.94-.64-1.39-.81-2.54-.7-1.59-.64-3.3-.93-5.13-.89-.58-.12-1.08-.43-1.42-.91-.61.94-1.5.91-2.68-.09-1.31.1-2.16-.24-2.55-1-.81.58-2.25,1.17-2.15-.3-.71-.08-1.39.38-2.04,1.39-1.3.65-1.98-.72-.93-1.65-.47-.36-.82-.82-1.05-1.38l-1.76-.05c.95,2.04-2.18,2.39-2.18.1-.69,2.05-3.13,1.67-2.55-.68-.18-.63-2.11-.55-1.6.31,1.01.47,1.91,1.26.43,1.77-2.23.77-2.79-2.63-2.25-4.18-.86,1.75-2.36,2.75-3.61.63.26-.24.02-.35-.7-.35-1.18-1.62.78-1.79,2.04-1.49.63-1.16,1.47-1.99,2.51-2.46l.87.22c.65-.83,1.48-1.49,2.47-1.97-19.21,1.91-36.69,10.83-51.14,22.83-1,1.4-2.03,2.16-3.67,2.59.12,1.25-.44,1.85-1.52.93-1.69.46-2.21-2-.61-2.57-.2-.33-.55-.3-1.05.11-.86-.03-1.65.25-2.37.86l-1.04-.14c-1.03,2.29-2.24,1.07-1.41-.88-.76.37-1.42.17-1.57-.7l-.47-.27c-.38-.44-1.02-.64-1.91-.61.22,1.95-2.25,2.56-2.17.44-1.22.13-1.85-.4-1.6-1.62-.91,2.29-1.93,2.43-2.89.05-.16-.19-1.57-1.52-1.68-1.56-.25-.1-.7-.13-.97-.05-1.28.97-2.88.72-3.48-.84l-1.3-.55c-1.34,1.46-2.65-.27-3.24-1.59-2.11-.95-.71-2.68,1.1-1.92.57-1.08,1.52-1.92,2.86-2.52,9.53-4.77,19.01-9.77,28.45-15.01,2.11-.48,3.46-1.5,4.04-3.05l-.61-.11c-1.21-1.32-2.71-1.72-4.46-1.52l-1.39-1.17c-.79,1.56-4,1.41-2.73-1.01-.73.22-1.24.08-1.51-.41.05,2.25-2.67.65-3.42-.54-.94-.15-1.85-.14-2.72.02l-.88-.65c-1.13,1.07-2.17.22-1.35-1.16-.44-.17-.84-.4-1.22-.69-.49.76-1.39.93-2.68.48-1.87.36-2.54-.05-2.03-1.23-.73.38-1.47.14-2.22-.7-.52.57-3.74,1.27-4.29,1.02-.95-.42-.94-1.54.51-1.61.3-.02-.84-.69-1.01.11-1.02.4-1.26-.59-1.4-1.44-.92.83-1.81.52-2.66-.94-1.02.59-1.97.55-2.87-.25-.88,1.1-1.59.55-1.46-.73l-.31-.79c.28-.29.11-.44-.49-.47,1.63,2.97-3.59,3.12-1.43-.17.03-.95-.62-.67-.71.25-.32.16-.66.14-1.01-.05-.14,1.51-2.38,2.01-2.29.31.04-.69.88-2.99,1.56-3.15l-.09-1.08c3.38-9.49,5.1-20,4.46-30.05l.38-2.69c-2.12-11.95-5.61-24.74-13.79-33.89-.4-1.25-1.14-2.31-2.23-3.17-8.31-11.26-21.46-20.04-35.13-23.72s-30.79-2.84-44.28,2.44l-1.4.03C.03,108.65.03,53.11.24,0h182.97Z"/>
  <path class="cls-1" d="M302.4,392.23v93.14c-.22-.18-.45-.39-.66-.46-.41-.13-.76.28-1.07.36-.82.23-.72-.73-1.04-1.1-.2-.23-.61-.32-.84-.76-.26-.48-2.42.4-2.86,1.39-.14.31-1.12-.25-.99-.66s.97-.9.6-1.38c-.65-.85-1.91.75-2.2.88-.48.22-.76-.46-1.35-.46-.26,0-.32.28-.67.58-.16-.5-.18-.85-.49-1.31.18-.16.32-.05.6-.09-.08-.46-.47-1.19-1-1.26-.33.19-.45,1.04-.95,1.07-.44.03-.5-.69-.77-.9-1.08-.84-2.43-.85-3.72-1.01-.29-.04-.46-.59-.73-.59-.23,0-.55.3-.82.24-.36-.07-.55-.6-.87-.56-1.62.21-1.42,1.4-2.28.91-.3-.17-.92-.53-.64-1.02.25-.42.76-.32.83-.97-2.91-.72-.05-1.21-4.27-.16-.48-1.3-2.52.18-1.84-1.06.2-.36.2-.69.02-1-.14-.23-.4-.31-.84-.25-.28.04-.28.57-.64.79-.18.11-.57-.12-.69.04-.09.13-.38.35-.18.57.12.13.41.55.62.13.17-.43.37,0,.29.44-.49.22-1.74.51-1.95-.11l-.34-.98c-.17-.5-.7.85-1.8-1.3.32-.37.75-.54,1.13-.83-.03-.7-.91-1.85-1.48-1.26-.37.38-.33,1.36-1.28,1.36.26.7.48,1.14.87,1.9-.57.25-1.08.47-1.63.41.13-.46.65-.95.35-1.33-.36-.44-.66-.79-.84-1.42-1.25,1.2-.73,1.36-2.22,2.31-.16.1-.47-.21-.61-.33-.44-.38,1.31-.66-1.15-2.7-.27-.23-.37-.57-.7-.6-.28-.03-.43.62-.71.68-2.09.49-3.04-1.94-3.07-1.95-.15-.04-.54-.16-.58,0-.1.44-.05.7-.24.91-.34.37-.63-.18-.92-.23-.86-.14-.72-.67-1.04-1.21-.23-.4-1.2-.35-1.41-.9-.14.74-.53,1.4-1.14,1.33-.24-.1-.38-.58-.45-.76-.24-.6.89-.92.77-1.39-.09-.35-.35-.34-.61-.38-.38-.07-.33.27-.44.63-.31.96-1.35,1.67-2.28,1.06-.72-.48-.15-1.38-.74-2.46-.18-.33-.39.25-.59.24-2.22-.07-2.27,1.39-2.52.61-.23-.69,1.19-.76,1.09-1.74-.05-.45-.72-.41-1.02-.46-.5-.08-.56.51-.77,1-.23.52-1.02.5-1.19,1.02-.12-.92-.31-1.17-.68-1.5s-.74,0-1.32.08c-.46.05-.17-.82-.33-1.01-.29-.37-.89-.49-1.17-1.07-.37.55-.89.7-1.56.5-.34.34-.36.74-.57,1.23-.43-.23-.41-.78-.76-1.09-.13-.12-.54.14-.68.04-.21-.15-.2-.5-.38-.7l-1.39-1.52c-.89.63-1.39,1.3-1.13,2.34-.71-.01-1.09-.07-1.7.2-1.03-2.29-.01-1.09-.16-2.21-1.66.75-2.25-1.78-4.04-1.58.15.23.25.46.2.66-.05.25-.27.78-.55.63-.44-.22-.74-.38-1.19-.37-.35,0-.51.37-.95.67-.41.27-.42-.55-.4-.81.06-.82,1.69-.08,1.62-1.22-.03-.51-.62-.68-1.11-.53-.38.11-.7.41-.97.23-.55-.36-.57-1.08-.85-1.23-.01,0-1.4,2.45-1.42,2.46-.32.13-1.16.35-1.3-.09-.35-1.12-.47-2.17-.9-3.18-2.86.55-2.47,1.65-5.11-.69-.3.23-.61,1.08-.95.79-.55-.47-1.04-.81-1.83-1.02.28-.51.37-1.46.57-1.97.26-.67,1.39-.48,1.97-.67l10.89-3.49c3.4-1.09,6.46-2.59,9.57-4.29l1.86-1.02c2.46-1.34,7.78-3.95,9.55-6.06.68-.81,2.16-.91,2.77-1.72,2.13-2.82,1.44-.4,3.61-3.33.46-.62.73-1.33,1.46-1.65.1-.05.11-.49.08-.59-.15-.57-.93.75-2.29-.72-.46-.49-1.19.41-1.65.51-1.03.22-1.98.27-2.91.75-.58-.74-.43-1.54-.25-2.36-2.04-.45-1.87,3.62-3.13,1.96-.73-.96,2.14-1.61,1.26-3.12-.98.31-1.99,1.03-2.96.69-.19-.07-.17-.68-.3-.77s-.57.17-.7.02c-.3-.36-.84-.69-1.07-1.02-.36-.52.66-.75.89-1.04.83-1.08,1.99-1.69,2.95-2.56l1.91-1.7,1.93-1.67c1.28-1.11,2.46-2.33,3.59-3.6l1.68-1.9c3.37-3.8,6.22-7.91,8.67-12.35l.95-1.72,2.65-5.26c.44-.87.87-1.77,1.21-2.67l1.42-3.82c2.21-5.91,3.4-12.04,3.81-18.31.04-.67-.42-1.16.1-1.85.6-.82.03-1.97,0-2.88-.05-1.02-.09-1.84-.69-2.7-.23-.33-.21-.88-.54-1.01s-1.23-.26-1.35.08c-.34.97-1.32,2.39-1.83,2.17-.37-.16-.6-.6-.65-.88-.08-.46.54-.58.95-.63.13-.02.46-1.19.47-1.19-.91-.44-1.92,1.55-3.46.72l-.52-2.07-.51-3.03c-1.22-7.3-2.49-14.43-5.53-21.17-.63-1.41-1.06-2.61-2.03-3.82-.84-1.05-1-2.69-1.98-3.75-.45-.48-1.1-.89-1.26-1.6-.15-.65-.94-1.01-1.12-1.47-.55-1.41-1.41-1.99-2.51-2.81-.86-.64-1.48-2.04-2.84-1.84-.35.05-.71.39-1.02.08-.22-.22-.22-.72-.41-.98-.39-.54-1.23.15-1.75.03-.68-.15-.89-1.08-1.53-1.4-.6.67-1.21.45-1.89.18-.55-.22-1.23-.15-1.19-1.02-.36-.16-.86-.03-1.15-.31-.42-.4-.32-1-.61-1.6-1,.65-1.39-.33-2.06-.71-1.09-.62-1.88-1.47-2.87-2.16-2.29-1.59-4.62-3.05-7.07-4.37-1.83-.99-3.7-1.7-5.45-2.76-1.31-.79-2.71-1.09-4.14-1.61-5.46-1.97-10.97-3.07-16.83-3.5-3.78-.28-7.54-.67-11.2-.05l-1.62.27c-.39.31-.54-.13-.12-.27,2.41-1.35,3.57-2.62,6.22-3.49.24-.08,5.44-2.35,4.04-2.71s-2.81.16-4.24.15c-1.09,0-2.05,0-3.11.14l-3.17.43c-5.44.73-13.74,2.88-18.6,5.31l-5.11,2.55c-4.86,2.43-14.02,9.41-17.53,13.58l-1.65,1.96c-.58.69-1.12,1.25-1.76,1.86-.78.75-1.25,1.74-2.25,2.38-.34.22-.39,1.34-1,1.24.14.02-2.25-.58-2-1.12.09-.19.3-.42.19-.51-.09-.08-.41-.15-.53-.06l-1.63,1.15c-.08.25-.24.42-.43.18-.16-.21-.37-.29-.52-.64.51-.29,1.51-.59,1.24-1.21-.41-.96-.78.7-1.32,1.06-.66.44-1.12-.28-1.61-.35-1.32-.17-3.06,3.26-3.66,4.47l-.95,1.91c-.66,1.32-1.53,2.39-2.08,3.77-1.22,3.1-2.55,5.87-3.45,8.99l-1.06,3.7c-1.53,5.32-2.04,10.81-2.44,16.35-.02.21.13.41.19.47s.23.03.32.03l.14.76c-1.66,8.23-2.78,16.65-1.58,25.05l-.27,1.49c-.48-.23-.95-.54-1.68-.42.02.59.33.87.69,1.5-.66.18-1.64.45-2.08-.06-.18-.25.13-.86-.17-.97.69.26-2.79-.6-2.15-.29-.4-.19-.15-1.04-.6-1.22-.27-.1-.66-.08-1.07-.14-.34-.05-.57-.56-.87-.44-.33.13-.65.23-.93.6,1.03.33.79.99.91,1.72l.38,2.38c.1.61.85,1.1.81,1.78-.07,1.1,2.82,7.78,3.55,9.2l.87,1.72c1.54,3.03,3.09,5.88,5,8.68,1.16,1.7,2.09,3.46,3.4,5.07l2.68,3.29c.52.63.92,1.24,1.47,1.91l1.17,1.43c.92,1.12,1.9,2.1,2.67,3.31-.66.54-.76,1.11-.95,1.99-1.01-.4-1.53-1.23-2.44-1.44-.56-.13-1.05-.51-1.44-.8-.95.3-2.06.1-2.97-.23-.44-.16-.93.13-1.39-.33-.85-.84-3.12-.09-3.21.66-.55.2-.34-.93-.46-1.16-.52.33-.95.42-1.67.27-.56-.12-.81.91-.93,1.39-.64,0-.67-.65-.78-1.09-.12-.49.42-.83.78-1.2-.47-.26-1.06-.64-1.05-1.46l-1.95.1c-.22-.4-.3-.82-.61-1.04-.65-.13-1.13.81-1.64.82-.38,0-1.17-.47-1.47-.68-.59-.6,1.01-.78.51-1.56-.38-.61-.82.87-1.31.58-.18-.11-.69-.53-.37-.62.38-.12.96-.36.77-.57-.29-.32-.55-.6-.9-.93-.19-.19-.5.21-.57.39-.08.19.17.61.13.86-.09.61-.86.85-1.4,1.12-.36.18-.57-.19-.65-.43-.21-.62,1.4-.44,1.38-1.37-.02-.81-1.58-1.22-1.78-.94-.36.51-.16,1.55-.7,1.78-.26.11-.5.06-.78-.2-.14-.13.17-.54.11-.75-.29-.95-1.36-.51-1.98-.64s-1.09-.18-1.72.13c-.4-.29-.49-1.12-.53-1.66-.3-.01-.7-.07-.92.08-.01.66,0,1.47-.47,1.91-.89-.71.09-1.55.19-2.19-.88-.3-1.88-.35-2.61-.97-.12.88.57,1.28-.04,1.87-.36-.58-.54-1.06-1.07-1.3-.63-.28-.24-1.12-.52-1.57-.32-.51-1.4.1-1.66.6-.33.63-.97-.72-1.43-.75-.3-.02-.51.24-.87.46-.4-.29-.42-.81-.9-1.03-.39.25-.76.68-1.08.49l-.99-.58c-.52-.31-1.21.6-1.89.78l-2.85-1.98c-.55-.38-1.4-.05-1.99-.48-.46-.34-.43-1.42-.76-1.18s.19.61-.15,1.08c-.17.24-.46.34-.73.19-.65-.35-.16-1.19-1.08-1.59-.24-.11-.51.3-.61.74-.13.54-1.11,1.11-1.5.58-.22-.3.36-.89.08-1.2-.18-.2-.59-.36-.98-.38-.23-.01-.4.34-.66.66-.4.49-1.96.14-1.95-.49.01-.72.57-1.48-.07-2.15-2.3.4-1.4,1.05-1.9.96-.28-.05-.49-.2-.5-.37-.02-.49.93-.64.54-.82-.79-.38-2.21,1.21-3.94-.78-.59-.68-1.76.11-2.36.27-.45-.47-.84-1.25-1.4-1.63-.41-.28-.45-1.64-1.29-1.35s-1.69,1.39-2.79,1.21c-.31-.05-.72-.29-.78-.02-.34,1.58.56.27-2.25,1.29l.93-2.2c.03-.17-.41-.3-.57-.39-.38-.21-.67,1.02-1.4.72-.43-.18.03-1.41-1.9-1.23-.09-.33.12-.59.26-.98-1.19-1.22-3.06.11-3.03-.07-.14.84.68,1.48-.5,2.12-.34-.4-.35-.81-.51-1.27-.64-.23-1.02-.69-1.28-1.31-.55-.14-1.06-.06-1.5-.41.1-.35.29-.76.07-.93-.23-.19-.55-.11-.71-.2-.43-.23-.4.38-.24.65.2.34.79.57.57,1.02-.11.23-.46.89-.79.56s-.3-.86-.75-.86c-.38,0-.59.18-.95.42-.38.25-1.27-.2-1.06-.63.33-.21,1.1.25,1.4-.05.18-.18.32-.82.09-1-2.59.02-1.74-2.45-3.94-2.3-.32.02-.14.62-.29.94-.15-.42-.44-.61-.88-.76-.91-.32-2.5,2.33-3.24,1.94-.53-.28.3-1.18-.39-2.15-.18-.26-.86,0-1.11-.24-.63-.58-.95-1.09-1.96-1-.29.03-.78-.57-1.16-.31-.69.47-1.31,1.11-2.23,1.17.31-2,1.27-.35,1.14-2.57-.01-.19-.42-.15-.72-.07-.21.06-.24.29-.45.61-.29.45-1.39.59-1.65.07-.23-.45.15-.95-.15-1.26-2.32.37-1.76-1.38-2.32-.95l-.64.49c-.28.21-.32-.39-.13-.49.08-.04.29-.18.3-.33.06-.68-.8-.85-1.23-.83-.85.03-.65.76-.9,1.41-.28.74-1.43.16-1.84-.26l-2.31-2.35c-.22.36-.39.7-.72.68-.19-.01-.28-.64-.48-.67-.82-.11-1.77.58-2.56.24-.38-.16-.4-.77-.69-1.08-1.05,1.17-1.8-.32-2.39.79-.19.36-.44.55-.75.41-.23-.1-.58-.14-.47-.49.06-.18.34-.44.34-.73s-.41-.4-.48-.57c-.11-.28.2-.55.04-.82-.44.07-.69.37-.94.25-.22-.1-.29-.44-.37-.81-.17-.18-.57-.03-.78.13-.21.99,1.93,2.96.84,2.97-.64,0-.77-1.54-1.22-1.73-.29-.12-.74-.08-.77.07-.05.21.16.61.05.87-.26.66-.91.24-1.35-.04-.3-.19-.63-.7-.62-1.22.02-.48-1.54-1.82-2.3-1.16-.26-.29-.33-.9-.11-1.22.22-.35.3-.63,0-.96-.21-6.87-.21-14.4,0-21.35l.23-.58c2.75-1.42,5.45-2.9,8.11-4.43,1.37-.54,2.67-1.29,3.89-2.24l.34-1.12c1.66-.41,1.73-.52.18-.34l-.54-.33c-1.19,1.92-3.47.61-1.69-.96-.63-.16-1.12-.46-1.47-.9,0-.42-.2-.81-.3-.39-.45,1.89-.85,2.15-2.68,1.26-1.04,1.69-2.31-.86-1.94-2.02l-.71-.34c-.73.53-1.53.64-1.99-.28-.89.14-1.36-.11-1.42-.76-.18-21.5-.14-44.04-.07-65.67,0-.06.07-.11.17-.17.09-.33.24-.59.56-.48,6.93,2.76,14.53,4.57,21.99,4.83,1.64.06,3.74-.05,5.26-.61,1.02.6,2.01.62,2.99.09-.93-1.13.94-2.56,1.87-3.25.86-.65,2.29-1.62,3.21-2.11,9.32-4.49,18.29-9.23,27.2-14.02,2.26-.99,4.45-2.15,6.57-3.49.37-.4.66-.89.87-1.48,1.04.16,1.7-.1,1.98-.77.42.25.15.6-.29.18-.64.23-1.3.4-1.98.49-1.08.68-2.56,1.15-2.36-.7-.88.98-3.21,1.65-3.09-.21-1.15-.4-.96-1.29-.39-2.16,7.23-7.42,13.57-16.64,15.5-26.84-1.34-.78,0-2.17.79-2.97-2.53,1.98-3.68,1.66-3.45-.95-.77-.47-1.75-.36-1.24.7-.4,1.33-1.79.9-1.67-.42-1.06-2.35-.86-3.77,1.43-5.34l6.37-3.09c.16-.11.26-.26.35-.42.54-.97-.28-9.01-.53-10.32-.9-4.83-2.27-9.84-4.75-14.02-.33-1.22-.93-2.24-1.8-3.07-1.06.06-1.79-.26-2.18-.97-.33.77-.74,1.07-1.23.88-.53-.84-1.19-1.36-1.98-1.58-.69-1.44-1.9-1.07-2.42.29-1.26.44-1.8-.81-1.02-1.79.1-.55-.11-.57-.63-.07-.42.07-1.37-.82-1.75-1.2-12.22-14.97-33.27-21.5-51.67-15.72-1.01-.43-1.6-.57-2.76-.35-1.87.79-3.34,0-4.59-1.43l-.79.16-2.97-.78c-.55.5-1.01.57-1.39.2-.09-.02-.17-.05-.17-.07-.07-5.72-.1-11.65.07-17.3,6.55-2.61,13.33-4.56,20.47-4.94l3.89-.2c1.74-.09,3.5-.09,5.23,0l3.7.2c15.41.82,29.73,7.62,41.01,18.17,1.62,1.51,3.22,2.78,4.5,4.65.58.86,2.77,3.76,3.61,4.29.67.42.6,1.48,1.07,2.07.91,1.15,2.14,2.09,2.83,3.41.37.71.62,1.3,1.16,1.94s.82,1.41,1.25,2.12c3.59,6.1,6.53,15.35,7.75,22.36.03.18.75,4.55.81,4.21-.3,1.72-.53,3.1-.24,4.83.23,1.33.02,2.87-.05,4.19l-.21,4.09c-.24,4.59-1.31,8.93-2.44,13.39-.35,1.39-.38,2.68-1.05,4.03-.37.75-.67,1.74-.91,2.56-.15.52.72,1.09.32,1.72-.24-.19-.42-.51-.86-.49-.25,1.1-.63,2.08-.97,3.06.23.3.7.22.9.12.39-.19.44-.55.59-1.05s.99-.13,1.24.15c-.03-.31-.24-.53-.32-.85.44-.25,1.19-.46,1.51-.07.67.84-.35,1.74-.45,2.45.1.52,1.71.32,1.55-.39-.13-.58-.69-1-.39-1.76l1.29.4c.19-.3.37-.66.66-.6.31.07.71.08.92.45-.55.47-1.03.55-1.58.9.62.56.41,1.09.41,1.76.54-.16.5-.65.81-.73.29-.07.58.17.83.36,1.28.95,2.18-.66,2.67.04.3.42.8,1.55,1.48,1.24.63-.28.93-1.36,1.82-1.58.22-.05.22.41.27.55.1.3-.39.36-.59.58-.44.49-.16,1.28.2,1.73.34-.38.42-.71.66-.71.39,0,.65.22,1.14.16-.05-.6-.46-.74-.76-1.22.67-.41.24-1.33.35-1.81,1.52-.52,1.74,2.34,1.71,3.09-.39-.1-.56-.26-.75-.25-.61.03-.17,1.16-.47,1.35-.27.17-.58-.13-.88-.12-.32.01-.26.46-.07.64.24.23.5.3.92.1.82-.39,1.76-.11,2.53-.54.32-.18.54-.47.86-.46.56,0,1.07,1.18,1.82.87.49-.2.02-.85,0-1.18.37-.59,1.16-.03,1.68.23.21.1.62-.24.76-.12-.21-.17.93,1.24.53,1.27-.72.05-1.41-1.4-2.23-.55-.24.25.52.55-.23,1.28.13.26.56.31.79.24,1.83-.53,3.12.79,3.35-.36.19-.98-1-.52-1-1.82,0-.37.13-.86.81-1.05-.07.99,1.03,3.63,2.39,3.32.61-.14,1.21-1.22,2.11-.96.09.22.35.35.41.74-.73-.02-1.03.49-1.55.64-.4.12-.81-.2-.98.13-.19.37-.69,1.02-.15,1.14.39-.09.67-.61,1.07-.53.37.08.64.31.9.73.25-.02.43-.34.65-.38.67.32,1.68.17,2.29.31.29.95,2.22,1.84,2.52,1.64s.01-.62-.05-1.1c-.04-.28.44-.15.65-.19.23-.05.35.41.53.7.68-.1,1.41-.52,2.24-.13-.4.33-.92.58-1.18,1.13-.12.25.07.8.37.83.57.05,1.25-.14,1.77-.25-.09-.38-.33-.53-.37-.64-.07-.19.13-.38.27-.44.2-.09,1.86,1.11,2.09,1.59,1.73-.4,3.55.27,4.69,1.69l.96-1.59c.16-.27.6-.24.52-.63-.06-.32-.45-.22-.74-.7.58.11,1.35-.05,1.75.25l.89,1.57c-1-.45-1.33-.03-1.9.42-.72.57-.75,1.17-.98,1.79-.65,1.78-2.77,1.98-4.19,2.77-2.14,1.19-4.07,2.45-6.26,3.48-.85.4-1.63.95-2.48,1.38l-10.13,5.2-5.18,2.71c-1.18.62-2.2,1.3-3.49,1.79-1.07.41-2.04,1.19-2.99,1.83-.51.34-.37,1.33-.93,1.61-.22-.49-.49-.79-.92-.74-.37.05-.72.32-.88.83,1.98.26,1.03,2.24,3.13,2.56.41-.07.47-.68.96-.82.33.68,1.08.6,1.47.87.42.29.3,1.01.85,1.12.66.14,1.13.49,1.73-.12.39-.41,1.85-.4,2.16.13.38.65.73.82,1.27,1.2.6.43.52,1.56,1.44,1.89l1.33-2.66c1.46-.2-.73,2.69,1.26,2.34.22-.04.36-.41.78-.63.36.57-.17,1.05-.03,1.76.06.3.75.21.95.06.52-.38-.1-1.67.82-1.59.35.03.63.14,1.06.28l-.11-.6c-.02-.12.13-.36.43-.34.15.76.49,1.29,1.22,1.63.19.09.21.6.36.72.28.22.76-.23,1.14-.16,1.06-.2-.84,2.83.23,2.09.52-.36.4-1.48,1.23-1.11.5.22.98.07,1.3-.32.49-.59,1.11-.35,1.72-.46.36-.06.7-.74,1.1-.38.26.23.97.8.6,1.04-.47.31-1.1.31-1.01.85.06.33.18,1.19.6,1.04.62-.23.84-.1,1.39.52.31-.56.04-.94.22-1.41.84-.45,2.34-.66,2.89-1.57.77-1.27,1.89-1.75,2.94-2.6.81-.66,1.31-1.4,2.3-1.88.75-.36,1.45-1.02,2.21-1.59,13.37-10.05,29.16-16.47,46.24-18.04-1.12,1.44-2.94,1.56-3.59,3.16-.47-.14-.87-.48-1.25-.31-.95.44-1.33,1.55-2.01,2.26-.53.55-1.47-.4-2.29.27-.12.09-.04.36.14.54.26.27.72-.59,1.25-.42.25.08-.14.89-.37,1.12.43.65,1.57,1.06,2.13.27.32-.45.26-1.26,1.16-1.4.1-.02.22-.3.37-.2.4.26-.37,1.92-.06,3.29.38,1.66,2.23.96,2.08,1.13.51-.6-.8-.44-1.08-1.1-.15-.36-.21-1.35.16-1.4.74.23,1.27.07,1.68-.06,1.45,1.11-.1,1.53.94,2.49.21.19,1.31-.33,1.33-.9,0-.32-.37-.43-.58-.72-.28-.38.19-.87-.03-1.26-.13-.22-.38-.62-.16-.79.17-.13.59-.24.84-.11.51.26-.2,1.12-.22,1.21-.04.32.94.27,1.35.54-.38.69-.28,1.4-.15,2.18.57-.05,1.02.21,1.49-.14-.17-.4-.41-.64-.43-.96-.08-1.04,1.98.02,2.74-.64-.16,1.97,2.28,1.59,1.52,2.01-.48.27-.98.61-.99,1.06-.01.26.29.41.57.35.31-.07,1.64-2.53,2.89-1.4.17.15-.18,1.45.35.68.94-.11,1.31-.72,1.58-1.45.17.6.12,1.72.84,1.76.89.04,1.69-.1,2.44.64.27.26,1.19.49,1.29-.06s-.22-1.17.59-1.38c-.04,2.87,3.02,1.71,5.22,2.27.59.15,1.27.76,1.94.57,1.02-.29,1.29.53,2.05.72,15.26,3.84,29.29,11.69,40.07,23.19,5.46,5.83,9.83,12.38,13.42,19.46.38.75,1.02,1.15,1.12,2.05.14,1.26,1.21,2.26,1.51,3.42.21.8.53,1.33.85,2.04.14.31.87,3.07,1.41,3.23.11.03,1.39-1.02,2.55-.41-.87,1.86.8,1.74.09,3.04-.19.34-.7.14-1.13.21-.39.07-.22.64-.1.87.19.37.63.4.98.01.2-.22.42-.34.65-.41.59-.16.14.79.95.86.23.02.33-.14.39-.27.13-.3-.37-.51-.36-.74.03-1.97-.48-1.2-.47-2.13,0-.36.84-.34,1.19-.29,0,.63.34,1.03.7,1.44.33.37-.37.85-.26,1.09.3.71,1.3,1.08,1.98.78l1.67,1.71c.84-.27.75-.85,1.21-.92.24-.04,1.36.91,1.31,1.4-.12.49.22.46.31.06,0-1.03-.26-1.8-.96-2.48-.02-.49,1.27-1.11,1.57-.65.15.22.19.43.2.5.01.12-.38.48-.6.71-.11.12.04.5.27.53,1.26.15,1.16,1.25,1.39,2.18.74,2.97,1.2,5.8,1.55,8.84l.24,2.05c.26,2.23.5,4.38.34,6.67l-.21,3.11-.3,5.03-.25,3.13c-.09,1.17.05,2.3-.53,3.44-.21.4.32.98.32,1.39-.76.89-1.38,2.3-.49,3.28.18.2.68-.12.8-.28.31-.44-.05-1.07.36-1.37.2-.15.39-.24.43-.39.08-.26.07-.58-.24-.74l-.38-.2c-.07-.04-.21-.13-.14-.17.66-.48,1.31-.06,1.74.53.23.31-.49.84-.43,1.32.07.61,1.41.45,1.68-.06.3-.57.4-1.26.96-1.41.1.54.56.8.32,1.1-.43.53-.17,1.18-.6,1.65-.05.06-.5.33-.4.66.17.54.65-.48,1.37.37.5.01,1.07-.19,1.34.42.09.42.43.3.45-.12,0-.22.1-.36.17-.44.14-.18.38-.24.6-.05,1.07.93,2.05.43,1.86,1.1-.17.58.71,1.22.6,1.15-.24-.15,1.43-.66,1.63-1.29.1-.31.33-.59.51-.69.85-.49.27.9.76,1.26.08.06,2.23-.36,2.38.28-.35,1.28,1.06-.02.95,2.19.03.37.77.24,1.04.23Z"/>
  <path class="cls-7" d="M217.51,0h84.89v168.46c-.17.17-.35.33-.54.46-1.14.79-6.3,1.82-8.03,2.11-1.05.17-2.2.32-3.23.09-14.12,2.09-28.54,1.36-42.34-2.76-24.32-7.26-44.63-23.67-56.91-45.71l-.68-.56c-6.61-11.43-10.76-24.74-11.66-37.95-.26-3.8-.55-9.35.18-13,.11-.56.35-1.08.66-1.57.18-.44.24-.92.18-1.44-.09-.31-.16-.62-.2-.94s-.08-.62-.04-.91c3.32-25.01,15.96-49.89,36-65.55.23-.18.52-.31.8-.43s.6-.22.91-.3Z"/>
  <path class="cls-10" d="M302.4,187.95v111.98c-.68.35-.96-.46-1.48-.69-.9-.39-1.97-.23-2.73-.93-.28-.26-.55-.5-.9-.37-.23.08-.44.23-.77.5-.33-.67-1.09-1.47-1.96-1.37-.46.05-.71.62-1.35.65-.28-1.59-3.56-1.79-3.64-1.84-.87-.46-1.8-1.12-2.76-.47-.53-.25-1.57-.31-1.98-.68-.3-.27.11-1.34-.65-1.32-.37,0-.65.5-.93.63-1.99-1.17.41-.92-3.06-2.32l-.93.83c-.41.37-.88.38-1.27.2-.83-.39-.5-1.53-1.13-1.66-.33-.07-.55.93-1.24.98-.24.02-.51-.17-.79-.37-.77-.55-1.7,0-2.54-.16-.27-.05-.24-.7-.44-.83-.86-.54-1.52.24-1.9-1.01-.18-.6-.66-.89-1.24-.9-.52-.02-.7.52-.95,1.07-.52-.79-1.1-1-1.86-.63-.65.31-.02-.87-.56-1.06-.35-.13-.45.15-.62.42-.34.55-1.25.57-1.63.05-.51-.7-1.68-.14-2.21-.5-.81-.54-1.36-1.13-2.38-1.3-.41-.07-.62-1.22-1.42-.95-.6.2-.9-.59-1.28-.72-.68-.24-1.49.27-2.2-.06-.13-.44.12-.91-.31-1.38-.52.3-.18.85-.34,1.22-1.75.08-.58-1.4-2.59-.54-.38.16-.66.12-.81-.25-.08-.2.39-.44.46-.72.09-.36-.69-.69-1.02-.81s-.87.24-1.16.46c-1.51,1.11-2.88-.97-3.05-1.12-.57-.54-1.37.28-1.63.85-.52-.15-.76-.59-.95-1.13-.54.09-.96.35-1.29.67-.5-.54-.55-.88-.01-1.6-4.07-1.21-2.39.62-4.11-.05.05-.28.43-1.02-.11-.91-.31.06-.32.78-.57.82-.78.11-.54-1.27-3.21-2,1.61-.45,2.56-.59,3.33-1.8.42-.66,1.56-.52,2.08-.98.84-.74,1.71-1.08,2.6-1.53l3.31-1.69,7.21-3.84,12.99-6.65,2.49-1.35,3.48-1.8,6.42-3.33c-.88-.66-1.64.08-2.41,0s-1.44-.65-2.27-.45c.26-.89,1.01-.97.93-1.72l-2.1,1.12c-.78.42-1.01-.98-1.22-1.68-.13-.43-1.36-.7-1.75-.48-.51.29-1.31,1.02-1.88.47-.41-.4-.1-1.35-.84-1.84-.41.82-1.21.13-1.64.24-2.78.69-3.06-1.3-4.56-1.32-.37,0-.42,1.05-.88.89-1.05-.38-.71-1.38-1.44-1.56-.2-.05-.52.36-.84.32-.59-.07-.72-.91-1.29-1.07-.53-.15-.97.48-1.62.49l-1.12-2.67c-.46.71.01,1.17-.44,1.41-1.2.64-1.47-1.19-2.96-1-.95.12-.77-1.45-1.51-.8-.45.39.29.27-.36,1.24-.12.18-.62-.04-.6-.24.08-.85-.56-1.04-1.01-1.44-1.53-1.37-.56-.33-3.69-.49-.04-.71-.41-1.82-.96-1.38-.25.22.34.78.02.91-.61.26-1.98-.15-2.03-.21-.27-.32-.41-.75-.82-.89-.25-.08-.61.41-1.02.47-.66-1.18-2.79-2.14-3.7-1.92-.31.07-.47.63-.69.89-.61.15-.66-1.01-1.07-1.18-.83-.36-2.18.24-2.93-.42-.46-.4-.57-1.15-1.49-.95-.7.15-1.22-1.35-1.94-.93-.26.15-.27.52-.35.83-.14.51-.56.12-.76-.07-.32-.31-.15-.53.09-.91.11-.17-.31-.53-.49-.45-.87.39-.88.88-1.39.7-.3-.1-.22-1.5-.99-1.31-.2.05-.25.38-.47.7-.37.54-1.05-1.19-1.68-1.28-.25-.04-.59.17-1,.17,0-.58.03-1.09-.44-1.11-.76-.04-.59,1.06-1.21.99-1.07-.11-1.1-1.35-1.79-1.63-.42-.1-.8.64-1.24.67-.54-1.2-.67-.28-2.73-1.35.43-.67.96-.66,1.54-.58.33-.38.4-.77.69-1.24,1.24.06,2.1-1.02,3.09-1.28,1.08-.29,1.54-.71,2.39-1.37.7-.55,1.74-.98,2.61-1.41l2.07-1.03,8.48-4.51,12.23-6.21c.86-.44,1.63-1,2.5-1.38,1.06-.47,1.97-1,2.98-1.58-.42.24,3.34-1.63,3.86-1.9l4.41-2.32,13.02-6.64,13.35-6.8,13.02-6.63,4.6-2.37c.47-.24.92-.35,1.37-.21Z"/>
  <path class="cls-1" d="M217.51,0c-21.4,16.4-34.2,41.31-37.47,68.14.07.52,0,1-.18,1.44-2.23,18.27,2.47,36.88,11.5,53.08-.45.57-4.13,2.29-5.25,2.69-11.02-17.55-17.63-37.37-18.73-57.88l-.15-2.71c-.16-2.95-.19-5.87,0-8.82l.17-2.69c1.18-18.85,6.77-36.85,15.82-53.24h34.29Z"/>
  <path class="cls-5" d="M302.4,616.42v39.98c-5.65.21-11.8.21-17.51,0-5.36-.14-10.75-.18-16.17-.12-.08-1-.07-2,.04-3-.39-18.42,15.41-33.97,33.64-36.86Z"/>
  <path class="cls-18" d="M.24,161.7l.09,17.37.48.17-.04,20.48-.48.29.48.23c0,28.26,0,56.52,0,84.79l-.48.3.48.35.03,5.84-.48.35-.09,65.84.48.36v12.63l-.48.44v21.35c.56.04.24.61,0,.96-.05.35.11.67.11,1.22l-.07,182.31c.18.02.42.06.48.21.18.48.13,3.83-.44,4.2l.48.23c-.05,24.76-.07,49.52-.07,74.28h6.36s.34.49.34.49c8.41-.21,17.27-.21,25.66,0,6.39-.21,13.43-.21,19.9,0,5.02-.21,10.52-.2,15.59,0,4.46-.21,9.39-.2,13.91,0,4.86-.21,10.2-.2,15.11,0,5.41-.07,10.87-.15,16.38-.24l.17.24.22-.48c3.8-.02,7.61-.03,11.42-.05l.29.48,142.52.05c.05-.47.24-.56.37-.12,5.34-.06,10.65-.02,15.94.12h17.51v.24H0V0h.24v161.7Z"/>
  <path class="cls-1" d="M302.4,168.46v2.35c-1.75.49-5.16.28-6.97.73h-4.54c-.26-.01-.34-.29-.29-.42,3.99-.59,7.89-1.7,11.8-2.66Z"/>
  <path class="cls-4" d="M186.57,446.77c-.52-.06-1,0-1.44.19-33.81,4.47-63.9-21.17-69.12-54.5-1.46-9.31-.54-18.44,1.71-27.3,10.07-35.33,47.5-54.95,82.09-43.6,34.37,11.28,54.04,49.46,40.27,83.64l-1.17,2.91c-2.41,5.98-5.79,11.51-10.09,16.31l-1.03,1.15c-1.67,1.86-3.44,3.59-5.28,5.28l-1.14,1.05c-9.48,8.73-22.08,13.19-34.79,14.87Z"/>
  <path class="cls-12" d="M126.07,656.35l-11.92.05c-.36,0-.35-.23.01-.72-.14-.49-.28-.99-.23-1.5.76-7.41,1.33-13.37.38-20.88-5.6-44.61-50.1-73.81-93.41-60.95-7.17,2.13-12.54,5.04-19,8.6-.49.27-1.04.36-1.59.44l-.04-4.4c.51-.5,1.01-.96,1.5-1.6,1.03-1.36,2.37-2.56,3.66-3.73l1.54-1.39c3.92-3.55,11.24-8.52,16.05-10.94,1.05-.52,2.07-.8,3.05-1.54s2.46-.8,3.52-1.49c.7-.46,1.38-.5,2.13-.78,5.92-2.17,15.06-4.1,21.29-4.28,5.4-.15,15.52.33,20.45,1.73l5.07,1.44c1.9.54,6.78,2.3,8.5,3.24,1.44.79,2.83,1.43,4.36,2.16,6.02,2.87,14.8,9.4,19.35,14.36l1.49,1.62,2.06,2.25c3.88,4.24,6.89,9.23,9.52,14.4.73,1.44,1.17,2.87,2.02,4.23,1.41,2.25,4.56,12.82,4.98,15.88l.94,6.92.2,2.71c.19,2.69.21,5.35.02,8.05l-.19,2.68c-.16,2.16-.48,4.23-.73,6.4-.09.78-.44,1.58-.57,2.35l-.41,2.37c-.34,1.95-2.98,8.9-3.74,11.17-.14.43-.41.77-.26,1.16Z"/>
  <path class="cls-6" d="M284.89,656.4h-16.31c.12-1.04-.24-2.15.18-3.12l.06,2.88h15.81c.18,0,.29.15.26.24Z"/>
  <path class="cls-15" d="M186.57,446.77l-1.44.19c.29-.48.97-.2,1.44-.19Z"/>
  <path class="cls-1" d="M108.44,295.06c-.54-1.14-1.21-1.5-2.35-1.95.7-.74,1.48-.35,1.86-.07.63.47,1.12.98.49,2.02Z"/>
  <path class="cls-1" d="M98.96,220.79c-.31.08-.52.56-.74.44-.27-.15-.41-.42-.38-.66.05-.42.95-1.12,1.08-1.13.32-.03.45.3.54.47.18.34.06.74-.5.88Z"/>
  <path class="cls-1" d="M111.88,294.02c.35.45-.39,1.62-.93,1.43-.37-.13-.17-.94-.09-1.25s.71-.57,1.02-.18Z"/>
  <path class="cls-1" d="M115.22,293.64c-.26.02-.56-.02-.68,0-.1.02-.19-.2-.15-.32.04-.14.27-.28.43-.41.37-.29.59-.21.85.08.23.26.22.59-.45.65Z"/>
  <path class="cls-1" d="M111.9,296.46c.48-.33.97-.3,1.43-.51-.07.49-.32.64-.51.82s-.51.23-.92-.31Z"/>
  <path class="cls-1" d="M103,259.04c-.27.04-.54-.79-.27-1.05.23-.22.6-.09.62.06.03.2.1.75-.36.99Z"/>
  <path class="cls-1" d="M114.13,259.74c.44-.34.77-.18.76.19,0,.3-.21.63-.57.6-.25-.02-.64-.44-.19-.79Z"/>
  <path class="cls-1" d="M195.03,284.61c-.25.42-.38.59-.45.63-.11.06-.38-.12-.52-.45s.9-.45.97-.18Z"/>
  <path class="cls-1" d="M210.72,287.73c-.24.08-.54-.19-.81-.46-.18-.18.07-.39.27-.42.24-.03.43.16.54.87Z"/>
  <path class="cls-1" d="M123.14,298.31c-.26.12-.32-.1-.34-.22-.05-.22.07-.35.21-.49.17-.16.31-.17.35.01.06.31.06.57-.22.7Z"/>
  <path class="cls-1" d="M279.06,346.14c-.34-.2-.12-.99.26-1.08.11-.02.35.26.29.31-.09.08-.3.31-.55.77Z"/>
  <path class="cls-1" d="M130.06,263.22c.11-.09.31.08.37.18.07.13.1.42-.09.5-.17.07-.36-.03-.51-.16-.18-.16-.03-.31.23-.51Z"/>
  <path class="cls-1" d="M276.35,345.84c.01-.27.3-.02.38.03.16.1.32.22.15.38-.06.05-.18.22-.25.18-.11-.07-.29-.22-.28-.58Z"/>
  <path class="cls-1" d="M112.43,293.75c.31-.24.59-.06.52.16-.04.12-.17.36-.36.43-.16.06-.53-.3-.15-.6Z"/>
  <path class="cls-10" d="M281.09,292.95c.03.64-.58.64-.55,0,.02-.36.54-.36.55,0Z"/>
  <path class="cls-1" d="M120.52,295.38c.16-.07.19.63-.02.68-.17.04-.32,0-.36-.13-.06-.19.06-.42.37-.55Z"/>
  <path class="cls-1" d="M99.82,257.31c-.46.48-.7.31-.42-.2.35-.29.74-.17.42.2Z"/>
  <path class="cls-10" d="M264.88,251.96c.16-.07.18.63-.02.68-.17.04-.32,0-.36-.13-.06-.19.06-.42.37-.55Z"/>
  <path class="cls-1" d="M206.77,286.98c.28-.31.63.35.64.31-.08.23-.27.11-.36.13-.2.04-.52-.16-.28-.44Z"/>
  <path class="cls-20" d="M.33,291.87l-.03-6.54,1.26-.17c28.22,7.09,56-15.43,54.37-44.62-1.54-27.63-27.65-46.96-54.38-40.36l-1.24-.17.04-20.93c.72-.24,1.4-.71,1.45-1.6.54.37.12.74.26,1.1.73.37,1.44.08,2.17.32.21.07.36.27.54.3.23.04.38-.14.66-.46,1.3,1.29,2.29,2.52,4.07,1.85.64-.24,1.54-.17,2.26-.26.33-.04.61.49.87.52.09.01,3.61-1.3,4.42-1.25,1.22.06,2.05-.19,3.19-.38,2.92-.49,7.2-.6,10.24-.38,4.6.33,8.88,1.39,13.17,2.86,1.1.38,2.08.61,3.08,1.24,1.26.8,2.65,1.34,4.01,2.02,3.11,1.57,5.92,3.5,8.42,5.88l3.43,3.26c.81.77,1.47,1.55,2.17,2.43.33.42,1.06.69,1.27,1.31.2.03.33-.22.39-.38.08-.22-.12-.41-.19-.75.62.02.91.58,1.07.95.53,1.2-1.03,1.27.12,2.09.48.34.38-1.84,2.12-1.28,1.43.46,1.68-.67,2.16-.21.15.14.16.56.03.73-.21.29-.62-.11-1-.16s-.18.5.06.68c.13.1.33-.03.69-.1.44.55.63,1.22,1.38,1.69-.27-1.18,2.15-1.97,1.66-1.91.25-.03.44.19.7.29.37.14.52.37.23.63-.45.41-.8-.29-1.25-.01-.15.1-.21.57.12.63l1.66.28,1.3,1.34c-.06.52,1.36,3.29,1.58,3.53.98,1.09,1.03,2.67,1.6,3.93,1.27,2.81,2.79,9.94,2.86,12.96l.12,5.13c.03,1.15-.32,1.63-1.27,2.1-1.06.53-2.1,1.05-3.24,1.54-1.44.61-3.09,1.2-3.91,2.51s-.69,2.64.24,3.59c-.13.3-.15.49-.06.62.11.14.29.32.47.17.7-.57-.61-.83.51-1.6.64-.44,1.76.18,1.83.27.22.3-.37,1.76.55,2.14.5.21.79-.39,1.15-.67.49-.38,1.15-.55,1.55-.96,1.3.96-.72,1.06-1.23,3.2,1.39-.1.67-.04.21,2.43l-.33,1.81c-.18.98-.66,1.82-1.03,2.81-2.7,7.14-7.07,13.52-12.3,19.06-.48.51-.7,1-1.27,1.4-.52.37-.82,1.37-.12,1.58.2.06.48-.32.58-.21.57.58-.52.64-.15,1.25.15.25,2.68.17,2.72-2.09.95.59.26,1.51.32,2.31.19.66,1.15-.08,1.56-.27.8-.36,1.7-.15,2.4-.73l.76.6c-.36.25-.55.66-.65,1.2l-1.52-.22c-.43-.06-.19.79-.36.98-1.01,1.08-2.5,1.47-3.7,2.23-.63.4-1.03.86-1.8,1.14-.58.21-1.31.44-1.85.74l-2.33,1.3-4.69,2.45-9.29,4.86c-2.6,1.36-5.12,2.75-7.79,3.92-1.76.77-3.34,1.43-4.75,2.78.67-.63-2.91,1.52-3.04,2.45-.02.15-.46.29-.41.43.06.18.32.49.61.58.94.29,1.63-.74,1.6-1.7-.1-.48.01-.44.52-.23.02.39.43,1.2.31,1.7-.19.83-1.39.81-2.07.78-1.06-.04-1.97.6-2.92.49-.42-.28-.94-.76-1.48-.38-.82.57-1.72.23-2.58.34-1.94.24-3.61.15-5.53-.07-6.27-.72-12.34-1.95-18.16-4.38-.44-.18-.78-.34-1.15-.23Z"/>
  <path class="cls-20" d="M.24,371.14v-13.44c.5.29,1.07.44,1.65.05.16.35.27.98.75.94s.78-.56,1.19-.37c.37.17,1.01.3,1.07.83.08.64-.87-.61.57,2.26.38-.28.35-.62.52-.72.6-.33,1.33.69,2,.35.48-.24.59-.84.48-1.48.31-.41.9-.34,1.34-.67.06.51-.28.89-.06,1.22.24.37,1.59.46,1.63,1.07.02.23-.37.4-.62.54-.37.2-.23.62-.06.76.73.63,1.23-.83,1.66-.93.3-.07.5.42.81.43.36.01.69-.27,1.02-.12.22.1.33.43.65.74-.36.41-.84.39-1.44.38s-.31,1.07-.6,1.25c-.69.42-1.34.69-1.86,1.32s-1.57.66-2.25,1.06l-1.96,1.16c-.86.5-1.38.78-2.25,1.15-1.51.64-2.75,1.79-4.25,2.23Z"/>
  <path class="cls-20" d="M85.89,418.84h-1.86c-.13-.28.16-1.25.6-1.12.57.17.78.82,1.26,1.12Z"/>
  <path class="cls-20" d="M233.26,464.4c-.71-.11-.89-.39-.87-.78.01-.31.21-1.03.52-.79.59.45.69,1.11.35,1.57Z"/>
  <path class="cls-20" d="M222.02,461.29c-.09.59-.57.31-.85.12-.37-.25-.24-.55-.06-1.09.1-.29.54-.24.69-.08.17.18.3.53.21,1.05Z"/>
  <path class="cls-20" d="M75.49,415.98c.02.53-.75.23-.92-.08-.19-.33-.4-.69.12-1.11.17.29.77.47.8,1.18Z"/>
  <path class="cls-20" d="M118.14,428.63c.1.16.31.42.35.5.07.15-.27.12-.51.17l-.6.13c-.24.05-.06-.51-.03-.81.02-.2.69-.16.79,0Z"/>
  <path class="cls-20" d="M9.03,395.84c-.31-.25-.07-1.3.48-1.42,0,.43.16,1.18-.48,1.42Z"/>
  <path class="cls-20" d="M243.19,465.47c-.26.49-.42.88-.76,1.33-.31-.3-.17-.59-.07-.97.07-.26.35-.44.83-.36Z"/>
  <path class="cls-20" d="M122.88,429.04c.05.17-.33.33-.48.37-.21.05-.83.19-.73-.18.37-.24.38-.55.61-.66.17-.08.5.11.6.47Z"/>
  <path class="cls-20" d="M69.79,197.91c-.56.06-.89-.26-1.2-.6.4-.23.62-.06.84-.11.28-.05.42.07.37.7Z"/>
  <path class="cls-20" d="M266.06,363.05c.28.14,0,.63-.22.56-.16-.05-.71-.05-.55-.28s.48-.43.77-.28Z"/>
  <path class="cls-20" d="M47.47,408.02c.48-.24.48-.11.51.2s-.08.3-.26.48c-.16.16-.36.08-.45-.09-.11-.22-.08-.45.2-.59Z"/>
  <path class="cls-20" d="M253.31,468.22c.24-.16.38.07.4.21.02.12.12.4-.14.6-.1.08-.21-.2-.38-.31-.14-.09-.14-.32.12-.5Z"/>
  <path class="cls-20" d="M28.84,400.3c.11-.26.51-.15.65-.02.17.16.27.22.13.39-.24.31-.35.1-.49.15-.26.1-.53,0-.29-.53Z"/>
  <path class="cls-20" d="M11.48,359.96c-.24.05-.37.04-.76.1-.3.05-.14-.37.12-.46.19-.06.33-.06.64.36Z"/>
  <path class="cls-20" d="M66.82,269.62c-.4.09-.6.12-.72-.06-.17-.26.61-.74.68-.74.1,0,.32.13.38.22.09.12.02.49-.34.58Z"/>
  <path class="cls-20" d="M14,360.42c-.52.22-1.15.06-1.67-.4.59-.03,1.09-.09,1.67.4Z"/>
  <path class="cls-20" d="M18.17,361.42c.08.52-.28.63-.44.5-.22-.18-.69-.19-.39-.54.11-.14.79-.13.83.05Z"/>
  <path class="cls-20" d="M6.75,393.84c.1-.29.57-.21.69.05.06.14-.1.26-.24.42-.24.29-.66.12-.45-.47Z"/>
  <path class="cls-20" d="M15.37,362.76c-.37-.06.1-.8.47-.74.31.06.26.85-.47.74Z"/>
  <path class="cls-20" d="M73.1,414.74c.28-.42.54,0,.67.07.23.15.09.45-.05.49-.33.08-.91-.1-.61-.56Z"/>
  <path class="cls-20" d="M70.55,269.11c.05-.31.41-.16.55-.17.17-.01.12.37.13.57,0,.09-.24.23-.35.18-.13-.05-.38-.26-.33-.58Z"/>
  <path class="cls-20" d="M.24,393.46c.04-.31,0-.65,0-.96.25.02.54-.1.71.11-.3.4-.36.76-.71.85Z"/>
  <path class="cls-20" d="M241.34,429.73c.06-.18.38-.04.39.07.01.2.04.47-.1.59-.11.08-.58.05-.58-.09s.22-.37.28-.57Z"/>
  <path class="cls-20" d="M2.43,393.36c.12-.28.36-.16.45-.03.07.12.2.22.12.44-.05.13-.15.24-.23.16-.15-.15-.45-.3-.33-.57Z"/>
  <path class="cls-20" d="M99.34,422.31c.22-.42.38-.26.53-.11.21.21,0,.26-.11.41-.2.26-.65.12-.42-.3Z"/>
  <path class="cls-20" d="M3.66,395.76c.18-.39.45-.06.45.21,0,.15.38.29.07.37-.42.1-.77-.04-.52-.57Z"/>
  <path class="cls-20" d="M261.2,471.6c-.47.2-.78-.12-.78-.61.39-.13.68.04.78.61Z"/>
  <path class="cls-20" d="M249.34,432.57c-.27.21-.39.31-.53.23-.13-.07-.17-.22-.13-.36.06-.17.28-.05.46-.22.24-.27.37.07.2.35Z"/>
  <path class="cls-20" d="M255.91,470.01c.03.64-.58.64-.55,0,.02-.36.54-.36.55,0Z"/>
  <path class="cls-20" d="M79.69,237.08c.2.34.12.44-.01.57-.19.18-.24.02-.43-.13-.2-.16.07-.19.15-.48-.03-.32.19-.29.29.03Z"/>
  <path class="cls-20" d="M246.37,322.07c.09-.18.23.09.3.15.2.17.11.44-.03.47-.32.06-.49-.14-.26-.61Z"/>
  <path class="cls-19" d="M179.86,69.57l.18-1.44c.03.47.29,1.14-.18,1.44Z"/>
  <path class="cls-3" d="M114.16,655.68c-.06.55-.3.61-.82.6-5.28.07-10.52.03-15.74-.12-4.86.21-10.2.2-15.11,0-4.46.21-9.39.2-13.91,0-5.02.21-10.52.2-15.59,0-6.39.21-13.43.21-19.9,0-8.5.08-17.06.16-25.66.24H.22s.1-75.01.1-75.01c17.91-11.68,39.5-15.69,60.44-10.05,37.08,9.99,60.28,46.6,53.4,84.33Z"/>
  <path class="cls-2" d="M.3,285.33v-85.32c18.31-5.08,37.79,2.14,48.43,17.81s10.43,37.48-1.97,52.35l-.94,1.12c-11.1,13.31-28.99,18.59-45.52,14.03Z"/>
  <path class="cls-8" d="M33.09,656.16c.21.07.21.15,0,.24H7.43c-.03-.09.08-.24.27-.24h25.38Z"/>
  <path class="cls-14" d="M53,656.16c.21.07.21.15,0,.24h-19.9v-.24h19.9Z"/>
  <path class="cls-9" d="M114.15,656.4h-16.55c-.21-.07-.21-.15,0-.24h15.35c.56.01.99-.05,1.21-.48-.04.23.01.48-.01.72Z"/>
  <path class="cls-17" d="M68.59,656.16c.21.07.21.15,0,.24h-15.59v-.24h15.59Z"/>
  <path class="cls-11" d="M97.6,656.16v.24h-15.11c-.21-.07-.21-.15,0-.24h15.11Z"/>
  <rect class="cls-16" x="68.59" y="656.16" width="13.91" height=".24"/>
</svg>