<?xml version="1.0" encoding="UTF-8"?>
<svg id="Layer_1" data-name="Layer 1" xmlns="http://www.w3.org/2000/svg" xmlns:xlink="http://www.w3.org/1999/xlink" viewBox="0 0 302.4 656.64">
  <defs>
    <style>
      .cls-1 {
        fill: url(#linear-gradient-5);
      }

      .cls-2 {
        fill: url(#linear-gradient-4);
      }

      .cls-3 {
        fill: url(#linear-gradient-3);
      }

      .cls-4 {
        fill: url(#linear-gradient-2);
      }

      .cls-5 {
        fill: #7ba303;
      }

      .cls-6 {
        fill: url(#linear-gradient);
      }

      .cls-7 {
        fill: #97c904;
      }

      .cls-8 {
        fill: #82ac05;
      }

      .cls-9 {
        fill: #87b306;
      }

      .cls-10 {
        fill: #93c305;
      }

      .cls-11 {
        fill: #afe904;
      }

      .cls-12 {
        fill: #8ab706;
      }

      .cls-13 {
        fill: #8ebd06;
      }

      .cls-14 {
        fill: #0d0d0d;
      }

      .cls-15 {
        fill: #9fd304;
      }
    </style>
    <linearGradient id="linear-gradient" x1="108.06" y1="865.07" x2="419.13" y2="1581.44" gradientTransform="translate(193.77 -208.48) scale(.24)" gradientUnits="userSpaceOnUse">
      <stop offset="0" stop-color="#afe904"/>
      <stop offset="1" stop-color="#769d03"/>
    </linearGradient>
    <linearGradient id="linear-gradient-2" x1="462.21" y1="3520.46" x2="306.57" y2="3541.08" gradientTransform="translate(193.77 -208.48) scale(.24)" gradientUnits="userSpaceOnUse">
      <stop offset="0" stop-color="#97c904"/>
      <stop offset="1" stop-color="#7ba303"/>
    </linearGradient>
    <linearGradient id="linear-gradient-3" x1="-169.05" y1="2221.8" x2="51.98" y2="2704.61" gradientTransform="translate(193.77 -208.48) scale(.24)" gradientUnits="userSpaceOnUse">
      <stop offset="0" stop-color="#7ba303"/>
      <stop offset="1" stop-color="#b3ee04"/>
    </linearGradient>
    <linearGradient id="linear-gradient-4" x1="-705.79" y1="3243.78" x2="-503.19" y2="3678.92" gradientTransform="translate(193.77 -208.48) scale(.24)" gradientUnits="userSpaceOnUse">
      <stop offset="0" stop-color="#b3ee04"/>
      <stop offset="1" stop-color="#81aa05"/>
    </linearGradient>
    <linearGradient id="linear-gradient-5" x1="-580.02" y1="1837.83" x2="-841.56" y2="1900.76" gradientTransform="translate(193.77 -208.48) scale(.24)" gradientUnits="userSpaceOnUse">
      <stop offset="0" stop-color="#7ba303"/>
      <stop offset="1" stop-color="#a6dc04"/>
    </linearGradient>
  </defs>
  <path d="M217.51,0c-.31.53-.65,1.07-1.12,1.48-6.02,5.32-11.04,9.91-15.95,16.39-5.48,7.23-9.9,15.23-13.22,23.67-3.32,8.45-4.83,16.04-6.48,24.87-.11.61-.41,1.18-.71,1.72.07.52,0,1-.18,1.44l.31,1.6c-2.08,26.19,8.84,53.25,27.12,71.95,18.66,19.08,44.28,29.44,71.04,28.62,7.88-.24,14.5-1.61,22.13-3.24.64-.14,1.3-.1,1.94-.04v447.96l-.87.64c-16.96,3.13-32.01,17.41-32.29,35.26l-.47.96c-.2,1.1-.15,2.1.16,3l-.33.12c-50.67.21-103.68.21-154.44,0-.53.03-.53-.21.01-.72-.14-.5-.27-1.02-.22-1.55.77-7.45,1.31-13.46.34-20.99-5.74-44.52-49.95-73.55-93.22-60.85-7.27,2.13-12.6,5.05-19.12,8.72-.51.28-1.08.41-1.65.51-.25-97.17-.26-198.94,0-296.19l1.26-.17c28.22,7.09,56-15.43,54.37-44.62-1.54-27.63-27.65-46.96-54.38-40.36l-1.24-.17C0,134.43.06,65.69.24,0h217.27Z"/>
  <path class="cls-6" d="M217.51,0h84.89v168.46c-18.16,5.18-37.45,5.13-55.58-.54-27.59-8.63-49.91-29.41-60.53-56.31-5.29-13.39-8.16-27.85-6.43-42.04.18-.44.24-.92.18-1.44,3.28-26.82,16.07-51.73,37.47-68.14Z"/>
  <path class="cls-4" d="M302.4,616.42v39.98c-5.65.21-11.8.21-17.51,0-5.36-.14-10.75-.18-16.17-.12-.08-1-.07-2,.04-3-.38-18.42,15.41-33.97,33.64-36.86Z"/>
  <path class="cls-14" d="M.3,200.01l.48.23c0,28.26,0,56.52,0,84.79l-.48.3v296.19s.48.23.48.23c-.03,24.72-.02,49.44.01,74.16h6.37s.28.49.28.49c8.41-.21,17.27-.21,25.66,0,6.39-.21,13.43-.21,19.9,0,5.02-.21,10.52-.2,15.59,0,4.46-.21,9.39-.2,13.91,0,4.86-.21,10.2-.2,15.11,0,5.41-.07,10.87-.15,16.38-.24l.17.24h154.44c.06-.47.24-.57.37-.12,5.34-.06,10.65-.02,15.94.12h17.51v.24H0V0h.24l.06,200.01Z"/>
  <path class="cls-3" d="M186.57,446.77l-1.44.19c-39.62,3.42-72.49-29.7-69.62-68.88,2.86-39.05,39.76-66.72,78.2-58.2s61.05,48.69,46.35,85.37l-1.14,2.85c-2.4,5.99-5.79,11.51-10.1,16.31l-1.03,1.15c-1.67,1.86-3.44,3.59-5.28,5.28l-1.14,1.05c-9.49,8.73-22.02,13.66-34.79,14.87Z"/>
  <path class="cls-2" d="M114.16,655.68c-.06.55-.3.61-.82.6-5.28.07-10.52.03-15.74-.12-4.86.21-10.2.2-15.11,0-4.46.21-9.39.2-13.91,0-5.02.21-10.52.2-15.59,0-6.39.21-13.43.21-19.9,0-8.5.08-17.06.16-25.66.24H.27s.02-74.88.02-74.88c24.9-16.74,57.37-16.99,82.4-.24,24.28,16.25,36.76,45.53,31.47,74.4Z"/>
  <path class="cls-1" d="M.3,285.33v-85.32c18.31-5.08,37.79,2.14,48.43,17.81,10.82,15.93,10.43,37.48-1.97,52.36l-.94,1.12c-11.09,13.3-28.99,18.59-45.52,14.03Z"/>
  <path class="cls-5" d="M284.89,656.4h-16.31c.12-1.04-.24-2.15.18-3.12l.06,2.88h15.81c.18,0,.29.15.26.24Z"/>
  <path class="cls-8" d="M114.15,656.4h-16.55c-.21-.07-.21-.15,0-.24h15.35c.56.01.99-.05,1.21-.48-.04.23.02.48-.01.72Z"/>
  <path class="cls-15" d="M179.86,69.57l.18-1.44c.03.47.29,1.14-.18,1.44Z"/>
  <path class="cls-11" d="M186.57,446.77c-.53.05-.98.37-1.44.19.29-.48.97-.2,1.44-.19Z"/>
  <path class="cls-7" d="M33.09,656.16c.21.07.21.15,0,.24H7.43c-.03-.09.08-.24.27-.24h25.38Z"/>
  <path class="cls-10" d="M53,656.16c.21.07.21.15,0,.24h-19.9v-.24h19.9Z"/>
  <path class="cls-13" d="M68.59,656.16c.21.07.21.15,0,.24h-15.59v-.24h15.59Z"/>
  <path class="cls-9" d="M97.6,656.16v.24h-15.11c-.21-.07-.21-.15,0-.24h15.11Z"/>
  <rect class="cls-12" x="68.59" y="656.16" width="13.91" height=".24"/>
</svg>